# xmcd
#
# Track frame offsets:
#	183
#	24913
#	40273
#
# Disc length: 730 seconds
#
# Revision: 0
# Processed by: cddbd v1.4PL0 Copyright (c) Steve Scherf et al.
# Submitted via: EasyCDDAExtractor 4.6.9.1
#
DISCID=1802d803
DTITLE=Edoardo Bennato - Abbi dubbi
DYEAR=1900
DGENRE=Pop
TTITLE0=Abbi dubbi (rock version)
TTITLE1=Viva la mamma
TTITLE2=Abbi dubbi
EXTD=
EXTT0=
EXTT1=
EXTT2=
PLAYORDER=
